<svg width="48" height="49" viewBox="0 0 48 49" fill="none" xmlns="http://www.w3.org/2000/svg">
<path fill-rule="evenodd" clip-rule="evenodd" d="M12 0.5C18.6274 0.5 24 5.87258 24 12.5V0.5H36C42.6274 0.5 48 5.87258 48 12.5C48 19.1274 42.6274 24.5 36 24.5C42.6274 24.5 48 29.8726 48 36.5C48 39.7908 46.6753 42.7722 44.5302 44.9401L44.4853 44.9853L44.4455 45.0249C42.2771 47.1732 39.2935 48.5 36 48.5C32.7289 48.5 29.7635 47.1912 27.5988 45.0686C27.5707 45.041 27.5426 45.0132 27.5147 44.9853C27.4884 44.959 27.4622 44.9326 27.4362 44.9061C25.3109 42.7411 24 39.7736 24 36.5C24 43.1274 18.6274 48.5 12 48.5C5.37258 48.5 0 43.1274 0 36.5V24.5H12C5.37258 24.5 0 19.1274 0 12.5C0 5.87258 5.37258 0.5 12 0.5ZM21.6 12.5C21.6 17.802 17.302 22.1 12 22.1V2.9C17.302 2.9 21.6 7.19806 21.6 12.5ZM45.6 36.5C45.6 31.198 41.302 26.9 36 26.9C30.698 26.9 26.4 31.198 26.4 36.5H45.6ZM2.4 26.9V36.5C2.4 41.802 6.69806 46.1 12 46.1C17.302 46.1 21.6 41.802 21.6 36.5V26.9H2.4ZM26.4 22.1V2.9H36C41.302 2.9 45.6 7.19806 45.6 12.5C45.6 17.802 41.302 22.1 36 22.1H26.4Z" fill="#4F31E4"/>
</svg>
