<svg width="56" height="56" viewBox="0 0 56 56" fill="none" xmlns="http://www.w3.org/2000/svg">
<path d="M28 34.72C25.8767 34.72 24.15 32.9932 24.15 30.8699V25.1066C24.15 22.9833 25.8767 21.2566 28 21.2566C30.1233 21.2566 31.85 22.9833 31.85 25.1066V30.8699C31.85 32.9932 30.1233 34.72 28 34.72Z" stroke="#0068C3" stroke-width="2" stroke-linecap="round"/>
<path d="M39.62 31.4299C39.1533 37.4499 34.1133 42.1634 28 42.1634C21.56 42.1634 16.3333 36.9367 16.3333 30.4967V25.5033C16.3333 19.0633 21.56 13.8367 28 13.8367C34.0433 13.8367 39.0133 18.4333 39.5967 24.3133" stroke="#0068C3" stroke-width="2" stroke-linecap="round"/>
<path d="M35 4.66663H39.6667C46.6667 4.66663 51.3333 9.33329 51.3333 16.3333V21" stroke="#0068C3" stroke-width="2" stroke-miterlimit="10" stroke-linecap="round" stroke-linejoin="round"/>
<path d="M4.66667 21V16.3333C4.66667 9.33329 9.33334 4.66663 16.3333 4.66663H21" stroke="#0068C3" stroke-width="2" stroke-miterlimit="10" stroke-linecap="round" stroke-linejoin="round"/>
<path d="M35 51.3333H39.6667C46.6667 51.3333 51.3333 46.6667 51.3333 39.6667V35" stroke="#0068C3" stroke-width="2" stroke-miterlimit="10" stroke-linecap="round" stroke-linejoin="round"/>
<path d="M4.66667 35V39.6667C4.66667 46.6667 9.33334 51.3333 16.3333 51.3333H21" stroke="#0068C3" stroke-width="2" stroke-miterlimit="10" stroke-linecap="round" stroke-linejoin="round"/>
</svg>
