<svg width="28" height="28" viewBox="0 0 28 28" fill="none" xmlns="http://www.w3.org/2000/svg">
<rect width="28" height="28" rx="14" fill="#4F31E4"/>
<path d="M13.9999 14.0003C16.3011 14.0003 18.1666 12.1348 18.1666 9.83366C18.1666 7.53247 16.3011 5.66699 13.9999 5.66699C11.6987 5.66699 9.83325 7.53247 9.83325 9.83366C9.83325 12.1348 11.6987 14.0003 13.9999 14.0003Z" stroke="#F7F5FF" stroke-width="1.5" stroke-linecap="round" stroke-linejoin="round"/>
<path d="M20.0083 17.1162L17.0583 20.0662C16.9416 20.1829 16.8333 20.3995 16.8083 20.5579L16.6499 21.6828C16.5916 22.0912 16.875 22.3745 17.2833 22.3162L18.4083 22.1579C18.5666 22.1329 18.7916 22.0245 18.9 21.9079L21.8499 18.9579C22.3583 18.4495 22.5999 17.8579 21.8499 17.1079C21.1083 16.3662 20.5166 16.6079 20.0083 17.1162Z" stroke="#F7F5FF" stroke-width="1.5" stroke-miterlimit="10" stroke-linecap="round" stroke-linejoin="round"/>
<path d="M19.5833 17.541C19.8333 18.441 20.5332 19.141 21.4332 19.391" stroke="#F7F5FF" stroke-width="1.5" stroke-miterlimit="10" stroke-linecap="round" stroke-linejoin="round"/>
<path d="M6.84155 22.3333C6.84155 19.1083 10.0499 16.5 13.9999 16.5C14.8666 16.5 15.6999 16.625 16.4749 16.8583" stroke="#F7F5FF" stroke-width="1.5" stroke-linecap="round" stroke-linejoin="round"/>
</svg>
