<svg width="327" height="40" viewBox="0 0 327 40" fill="none" xmlns="http://www.w3.org/2000/svg">
<g clip-path="url(#clip0_30_1389)">
<path fill-rule="evenodd" clip-rule="evenodd" d="M88.0557 11.6853C86.4112 10.5865 84.4778 10 82.5 10V0C86.4556 0 90.3224 1.17298 93.6114 3.37061C96.9004 5.56823 99.4638 8.69181 100.978 12.3463C102.491 16.0008 102.887 20.0222 102.116 23.9018C101.344 27.7814 99.4392 31.3451 96.6421 34.1421C93.8451 36.9392 90.2814 38.844 86.4018 39.6157C82.5222 40.3874 78.5008 39.9913 74.8463 38.4776C71.1918 36.9638 68.0682 34.4004 65.8706 31.1114C63.673 27.8224 62.5 23.9556 62.5 20H72.5C72.5 21.9778 73.0865 23.9112 74.1853 25.5557C75.2841 27.2002 76.8459 28.4819 78.6732 29.2388C80.5004 29.9957 82.5111 30.1937 84.4509 29.8078C86.3907 29.422 88.1725 28.4696 89.5711 27.0711C90.9696 25.6725 91.922 23.8907 92.3078 21.9509C92.6937 20.0111 92.4957 18.0004 91.7388 16.1732C90.9819 14.3459 89.7002 12.7841 88.0557 11.6853Z" fill="#007DFC"/>
<path fill-rule="evenodd" clip-rule="evenodd" d="M72.5 5.28493e-06C72.5 1.31322 72.2413 2.61358 71.7388 3.82684C71.2362 5.04009 70.4997 6.14248 69.5711 7.07107C68.6425 7.99966 67.5401 8.73625 66.3268 9.2388C65.1136 9.74134 63.8132 10 62.5 10L62.5 20C65.1264 20 67.7272 19.4827 70.1537 18.4776C72.5802 17.4725 74.785 15.9993 76.6421 14.1421C78.4993 12.285 79.9725 10.0802 80.9776 7.65367C81.9827 5.22715 82.5 2.62643 82.5 0L72.5 5.28493e-06Z" fill="#007DFC"/>
<path d="M188.119 14.4525H183.267V29.8648H188.119V14.4525Z" fill="#007DFC"/>
<path d="M183.807 11.5666C184.314 12.074 184.948 12.3277 185.709 12.3277C186.47 12.3277 187.094 12.074 187.58 11.5666C188.067 11.0381 188.31 10.4038 188.31 9.66385C188.31 8.90277 188.067 8.26849 187.58 7.76111C187.094 7.25369 186.47 7 185.709 7C184.948 7 184.314 7.25369 183.807 7.76111C183.32 8.26849 183.077 8.90277 183.077 9.66385C183.077 10.4038 183.32 11.0381 183.807 11.5666Z" fill="#007DFC"/>
<path d="M113.656 29.8648V7.47571H118.635V25.4885H128.561V29.8648H113.656Z" fill="#007DFC"/>
<path fill-rule="evenodd" clip-rule="evenodd" d="M137.527 30.2136C135.942 30.2136 134.504 29.8648 133.215 29.1671C131.946 28.4483 130.942 27.4758 130.202 26.2495C129.462 25.0233 129.092 23.6491 129.092 22.1269C129.092 20.6047 129.462 19.2411 130.202 18.036C130.942 16.8309 131.946 15.8795 133.215 15.1819C134.483 14.463 135.921 14.1036 137.527 14.1036C139.134 14.1036 140.572 14.4525 141.84 15.1501C143.109 15.8478 144.113 16.8098 144.853 18.036C145.593 19.2411 145.963 20.6047 145.963 22.1269C145.963 23.6491 145.593 25.0233 144.853 26.2495C144.113 27.4758 143.109 28.4483 141.84 29.1671C140.572 29.8648 139.134 30.2136 137.527 30.2136ZM137.527 25.8056C138.225 25.8056 138.838 25.6576 139.367 25.3616C139.895 25.0445 140.297 24.6111 140.572 24.0614C140.868 23.4906 141.016 22.8457 141.016 22.1269C141.016 21.4081 140.868 20.7844 140.572 20.2559C140.276 19.7062 139.864 19.2834 139.335 18.9874C138.828 18.6702 138.225 18.5117 137.527 18.5117C136.851 18.5117 136.248 18.6702 135.72 18.9874C135.191 19.2834 134.779 19.7062 134.483 20.2559C134.187 20.8056 134.039 21.4398 134.039 22.1586C134.039 22.8563 134.187 23.4906 134.483 24.0614C134.779 24.6111 135.191 25.0445 135.72 25.3616C136.248 25.6576 136.851 25.8056 137.527 25.8056Z" fill="#007DFC"/>
<path fill-rule="evenodd" clip-rule="evenodd" d="M149.806 35.8902C151.095 36.4821 152.586 36.7781 154.277 36.7781C155.926 36.7781 157.396 36.4504 158.685 35.795C159.975 35.1396 160.99 34.2306 161.73 33.0678C162.469 31.905 162.84 30.5308 162.84 28.9451V14.4525H158.083V15.488C157.729 15.1902 157.327 14.9402 156.878 14.7379C156.053 14.3362 155.112 14.1353 154.055 14.1353C152.639 14.1353 151.381 14.4736 150.281 15.1501C149.182 15.8055 148.315 16.7146 147.681 17.8774C147.047 19.0191 146.73 20.3087 146.73 21.7464C146.73 23.1629 147.047 24.4525 147.681 25.6153C148.315 26.7781 149.182 27.6978 150.281 28.3743C151.381 29.0508 152.639 29.3891 154.055 29.3891C155.091 29.3891 156.032 29.1883 156.878 28.7866C157.287 28.592 157.657 28.3627 157.988 28.0986V29.072C157.988 30.1502 157.639 30.9853 156.941 31.5773C156.265 32.1693 155.324 32.4652 154.119 32.4652C153.146 32.4652 152.311 32.2961 151.613 31.9578C150.937 31.6196 150.324 31.1227 149.774 30.4673L146.793 33.4483C147.533 34.5054 148.537 35.3194 149.806 35.8902ZM156.719 24.6322C156.233 24.9282 155.651 25.0762 154.975 25.0762C154.298 25.0762 153.706 24.9282 153.199 24.6322C152.713 24.3362 152.332 23.9345 152.057 23.4271C151.782 22.8986 151.645 22.3383 151.645 21.7464C151.645 21.1121 151.782 20.5413 152.057 20.0339C152.332 19.5265 152.723 19.1248 153.231 18.8288C153.738 18.5328 154.319 18.3848 154.975 18.3848C155.651 18.3848 156.233 18.5328 156.719 18.8288C157.226 19.1248 157.607 19.5265 157.861 20.0339C158.136 20.5413 158.273 21.1121 158.273 21.7464C158.273 22.3806 158.136 22.9514 157.861 23.4588C157.607 23.9451 157.226 24.3362 156.719 24.6322Z" fill="#007DFC"/>
<path fill-rule="evenodd" clip-rule="evenodd" d="M173.051 30.2136C171.465 30.2136 170.027 29.8648 168.738 29.1671C167.469 28.4483 166.465 27.4758 165.725 26.2495C164.985 25.0233 164.615 23.6491 164.615 22.1269C164.615 20.6047 164.985 19.2411 165.725 18.036C166.465 16.8309 167.469 15.8795 168.738 15.1819C170.006 14.463 171.444 14.1036 173.051 14.1036C174.657 14.1036 176.095 14.4525 177.363 15.1501C178.632 15.8478 179.636 16.8098 180.376 18.036C181.116 19.2411 181.486 20.6047 181.486 22.1269C181.486 23.6491 181.116 25.0233 180.376 26.2495C179.636 27.4758 178.632 28.4483 177.363 29.1671C176.095 29.8648 174.657 30.2136 173.051 30.2136ZM173.051 25.8056C173.748 25.8056 174.361 25.6576 174.89 25.3616C175.418 25.0445 175.82 24.6111 176.095 24.0614C176.391 23.4906 176.539 22.8457 176.539 22.1269C176.539 21.4081 176.391 20.7844 176.095 20.2559C175.799 19.7062 175.387 19.2834 174.858 18.9874C174.351 18.6702 173.748 18.5117 173.051 18.5117C172.374 18.5117 171.771 18.6702 171.243 18.9874C170.714 19.2834 170.302 19.7062 170.006 20.2559C169.71 20.8056 169.562 21.4398 169.562 22.1586C169.562 22.8563 169.71 23.4906 170.006 24.0614C170.302 24.6111 170.714 25.0445 171.243 25.3616C171.771 25.6576 172.374 25.8056 173.051 25.8056Z" fill="#007DFC"/>
<path fill-rule="evenodd" clip-rule="evenodd" d="M199.781 30.1819C198.746 30.1819 197.794 29.9811 196.927 29.5794C196.471 29.368 196.059 29.1156 195.691 28.8222V36.3659H190.902V14.4525H195.754V15.5162C196.106 15.2283 196.497 14.9794 196.927 14.7696C197.794 14.3467 198.746 14.1353 199.781 14.1353C201.24 14.1353 202.53 14.4842 203.65 15.1819C204.792 15.8795 205.68 16.8309 206.314 18.036C206.97 19.2411 207.297 20.6153 207.297 22.1586C207.297 23.702 206.97 25.0762 206.314 26.2813C205.68 27.4864 204.792 28.4377 203.65 29.1354C202.53 29.8331 201.24 30.1819 199.781 30.1819ZM198.894 25.8056C199.591 25.8056 200.194 25.647 200.701 25.3299C201.23 25.0128 201.642 24.5793 201.938 24.0297C202.234 23.48 202.382 22.8563 202.382 22.1586C202.382 21.4398 202.234 20.8056 201.938 20.2559C201.642 19.7062 201.23 19.2834 200.701 18.9874C200.194 18.6702 199.602 18.5117 198.925 18.5117C198.249 18.5117 197.646 18.6702 197.118 18.9874C196.61 19.2834 196.209 19.7062 195.913 20.2559C195.617 20.8056 195.469 21.4398 195.469 22.1586C195.469 22.8563 195.606 23.48 195.881 24.0297C196.177 24.5793 196.589 25.0128 197.118 25.3299C197.646 25.647 198.238 25.8056 198.894 25.8056Z" fill="#007DFC"/>
<path d="M212.046 29.8965C212.934 30.1291 213.832 30.2453 214.741 30.2453C216.665 30.2453 218.187 29.8014 219.308 28.9134C220.449 28.0255 221.02 26.831 221.02 25.3299C221.02 24.3574 220.841 23.5751 220.481 22.9832C220.122 22.3701 219.657 21.8838 219.086 21.5244C218.515 21.165 217.912 20.8795 217.278 20.6681C216.644 20.4567 216.041 20.277 215.471 20.129C214.9 19.981 214.435 19.8119 214.075 19.6216C213.716 19.4313 213.536 19.1776 213.536 18.8605C213.536 18.5645 213.674 18.3425 213.948 18.1945C214.223 18.0254 214.635 17.9409 215.185 17.9409C215.756 17.9409 216.337 18.0571 216.929 18.2897C217.542 18.5222 218.092 18.924 218.578 19.4948L221.337 16.7041C220.64 15.8161 219.731 15.1501 218.61 14.7062C217.511 14.2411 216.306 14.0085 214.995 14.0085C213.748 14.0085 212.659 14.2199 211.729 14.6427C210.798 15.0656 210.079 15.647 209.572 16.3869C209.065 17.1057 208.811 17.962 208.811 18.9557C208.811 19.8859 208.991 20.6576 209.35 21.2707C209.709 21.8626 210.175 22.3278 210.745 22.666C211.316 23.0043 211.919 23.2686 212.553 23.4588C213.187 23.6491 213.79 23.8288 214.361 23.998C214.931 24.146 215.397 24.3257 215.756 24.5371C216.137 24.7274 216.327 25.0128 216.327 25.3933C216.327 25.6893 216.168 25.9218 215.851 26.091C215.555 26.2601 215.122 26.3447 214.551 26.3447C213.726 26.3447 212.965 26.1967 212.268 25.9007C211.57 25.5836 210.967 25.1502 210.46 24.6005L207.701 27.3912C208.23 27.962 208.864 28.4695 209.604 28.9134C210.365 29.3362 211.179 29.6639 212.046 29.8965Z" fill="#007DFC"/>
<path d="M229.868 30.2136C228.452 30.2136 227.194 29.9282 226.095 29.3574C225.016 28.7654 224.171 27.962 223.558 26.9472C222.944 25.9113 222.638 24.7274 222.638 23.3954V14.4525H227.49V23.332C227.49 23.8605 227.574 24.3151 227.744 24.6956C227.934 25.0762 228.209 25.3722 228.568 25.5836C228.928 25.795 229.361 25.9007 229.868 25.9007C230.587 25.9007 231.158 25.6787 231.581 25.2347C232.004 24.7696 232.215 24.1354 232.215 23.332V14.4525H237.067V23.3637C237.067 24.7168 236.761 25.9113 236.147 26.9472C235.534 27.962 234.689 28.7654 233.61 29.3574C232.532 29.9282 231.285 30.2136 229.868 30.2136Z" fill="#007DFC"/>
<path d="M244.331 14.4525H239.479V29.8648H244.331V20.8584C244.331 20.3299 244.437 19.8859 244.648 19.5265C244.881 19.1671 245.188 18.8922 245.568 18.702C245.949 18.4905 246.382 18.3848 246.868 18.3848C247.566 18.3848 248.147 18.6068 248.612 19.0508C249.099 19.4736 249.342 20.0762 249.342 20.8584V29.8648H254.194V20.8584C254.194 20.3299 254.3 19.8859 254.511 19.5265C254.744 19.1671 255.05 18.8922 255.431 18.702C255.811 18.4905 256.245 18.3848 256.731 18.3848C257.429 18.3848 258.01 18.6068 258.475 19.0508C258.961 19.4736 259.204 20.0762 259.204 20.8584V29.8648H264.057V20.3193C264.057 19.0297 263.782 17.9303 263.232 17.0212C262.703 16.0909 261.974 15.3827 261.044 14.8965C260.135 14.389 259.088 14.1353 257.904 14.1353C256.699 14.1353 255.61 14.3996 254.638 14.9282C254.006 15.2649 253.454 15.6995 252.981 16.2319C252.54 15.675 252.004 15.2193 251.371 14.8647C250.526 14.3785 249.564 14.1353 248.486 14.1353C247.344 14.1353 246.319 14.3785 245.41 14.8647C245.014 15.067 244.655 15.3093 244.331 15.5916V14.4525Z" fill="#007DFC"/>
</g>
<defs>
<clipPath id="clip0_30_1389">
<rect width="202" height="40" fill="white" transform="translate(62.5)"/>
</clipPath>
</defs>
</svg>
